<?xml version="1.0" encoding="UTF-8" standalone="no"?>
<!DOCTYPE svg PUBLIC "-//W3C//DTD SVG 1.1//EN" "http://www.w3.org/Graphics/SVG/1.1/DTD/svg11.dtd">
<svg width="100%" height="100%" viewBox="0 0 2481 3508" version="1.1" xmlns="http://www.w3.org/2000/svg" xmlns:xlink="http://www.w3.org/1999/xlink" xml:space="preserve" xmlns:serif="http://www.serif.com/" style="fill-rule:evenodd;clip-rule:evenodd;stroke-linejoin:round;stroke-miterlimit:2;">
    <g transform="matrix(1,0,0,1,18.8073,-25.8824)">
        <path d="M1225.88,688.937C1817.43,688.937 2297.7,1169.41 2297.7,1761.21C2297.7,2353.02 1817.43,2833.49 1225.88,2833.49C634.334,2833.49 154.071,2353.02 154.071,1761.21C154.071,1169.41 634.334,688.937 1225.88,688.937ZM1829.75,1476.24C1849.59,1567.25 1860.12,1662.33 1860.12,1760.17C1860.12,1936.34 1826,2103.57 1764.8,2254.13C1852.82,2290.08 1935.12,2336.14 2009.99,2390.77C2148.59,2218.38 2231.56,1999.41 2231.56,1761.22C2231.56,1701.64 2226.37,1643.27 2216.42,1586.53L2211.22,1584.31C2207.36,1581.95 2203.26,1578.68 2199.08,1574.38C2193.93,1569.08 2163.11,1537.01 2125.77,1520.3C2109.11,1512.85 2053.76,1498.88 2005.23,1492.18C1985.56,1489.47 1892.04,1478.81 1831.13,1476.3C1830.67,1476.28 1830.21,1476.26 1829.75,1476.24ZM1531.03,2185.67C1546.25,2188.48 1561.36,2191.58 1576.36,2194.95C1576.93,2185.08 1576.92,2175.52 1575.8,2166.98C1571.78,2136.27 1552.12,2144.93 1539.59,2162.27C1536.17,2166.99 1533.39,2175.39 1531.03,2185.67ZM1578.93,1152.78C1594.85,1147.38 1610.59,1141.66 1626.15,1135.64C1531.86,975.897 1402.42,844.537 1250.17,755.652C1245.41,755.538 1240.64,755.457 1235.86,755.41C1072.77,850.513 935.834,994.343 840.182,1169.59C957.429,1203.52 1083,1220.45 1213.17,1217.25C1276.86,1215.67 1339.2,1209.35 1399.79,1198.64C1392.8,1195.06 1383.02,1189.42 1378.88,1184.98L1372.55,1175.57L1369.6,1164.34L1370.03,1155.71L1372.67,1147.52L1377.55,1140L1385.04,1133.44L1392.59,1129.7L1402.78,1127.31C1413.61,1125.82 1437.49,1125.87 1463.88,1128.57C1502.28,1132.5 1552.48,1144.42 1578.93,1152.78ZM1104.78,762.567C885.004,788.948 686.923,886.318 534.165,1031.06C608.451,1078.83 689.501,1118.57 775.705,1148.93C858.175,994.236 970.952,862.06 1104.78,762.567ZM766.782,2293.27C789.08,2282.12 807.803,2273.33 821.107,2267.27C819.194,2258.36 817.238,2248.91 815.236,2238.95C807.311,2199.49 759.416,2191.83 759.74,2242.63C759.803,2252.5 763.09,2272.19 766.782,2293.27ZM1161.72,2174.26C1187.25,2171.2 1213.04,2168.91 1239.07,2167.44C1229.57,2143.92 1229.96,2083.16 1224.45,2043.27C1216.92,1988.63 1186.99,1992.75 1174.6,2037.41C1168,2061.21 1166.57,2129.7 1163.94,2161.91C1163.57,2166.37 1162.81,2170.49 1161.72,2174.26ZM629.743,1652.97C642.392,1493.98 682.9,1343.96 745.739,1209C652.991,1175.61 565.979,1131.89 486.475,1079.37C320.991,1258.67 219.843,1498.23 219.843,1761.22C219.843,2036.71 330.838,2286.49 510.511,2468.23C569.362,2414.91 634.297,2367.38 704.278,2326.67C699.019,2299.18 689.86,2252.16 676.791,2188.17C658.162,2096.95 641.344,2077.79 629.418,2075.62C617.265,2073.4 603.086,2089.49 601.178,2102.3C594.899,2144.45 592.792,2173.89 584.281,2221.84C583.049,2228.78 559.252,2233.81 555.413,2212.8C550.888,2188.03 544.224,2131.83 545.569,2075.82C546.914,2019.8 555.114,1989.93 584.91,1937.64C616.406,1882.37 643.368,1867.04 647.955,1841.16C648.634,1837.34 648.575,1832.27 648.07,1826.68C607.072,1820.38 575.528,1782.72 575.528,1737.27C575.528,1698.87 598.039,1666.04 629.743,1652.97ZM1753.08,1328.79C1745.94,1328.93 1742.24,1318 1732.69,1306.82C1723.14,1295.65 1697.01,1259.93 1660.24,1228.9C1639.66,1211.53 1604.01,1193.64 1570.66,1182.94C1546.01,1175.03 1497.6,1163.43 1460.71,1159.66C1431.73,1156.7 1406.22,1156.92 1402.2,1159.56C1396.75,1163.14 1407.86,1167.66 1414.09,1170.85C1420.32,1174.05 1477.81,1192.84 1496.82,1204.28C1538.69,1229.49 1564.2,1253.5 1587.35,1272.13C1610.51,1290.76 1684.16,1382.62 1690.15,1395.48C1696.14,1408.34 1689.37,1415.41 1686.22,1423.47C1683.07,1431.53 1657.49,1443.38 1640.4,1446.04C1623.32,1448.7 1608.81,1452.59 1601.14,1455C1593.46,1457.41 1599.58,1459.82 1601.55,1463.18C1603.52,1466.55 1640.42,1491.46 1664.45,1505.54C1688.47,1519.63 1718.92,1536.06 1724.24,1536.01C1729.55,1535.96 1730.05,1527.7 1729.78,1517.25C1729.5,1506.8 1735.8,1495.47 1744.56,1483.68C1755.47,1468.99 1771.25,1451.41 1779.57,1447.64C1799.03,1436.85 1980.92,1457.28 2009.5,1461.23C2061.49,1468.4 2120.68,1483.79 2138.53,1491.78C2180.71,1510.65 2215.69,1546.62 2221.51,1552.62C2227.32,1558.61 2232.41,1561.08 2237.44,1558.76C2242.46,1556.45 2240.55,1549.19 2237.54,1540.06C2234.53,1530.93 2211.84,1499.4 2196.89,1480.44C2181.93,1461.49 2165.81,1447.12 2135.27,1432.33C2104.73,1417.54 2071.49,1409.07 2044.88,1403.8C2019.04,1398.68 1985.75,1393.15 1958.9,1389.78C1932.05,1386.41 1875.2,1376.41 1860.51,1368.24C1845.82,1360.08 1843.36,1350.12 1844.87,1341.61C1846.65,1331.62 1875.08,1306.6 1876.11,1303.12C1878.62,1294.71 1866.85,1292.94 1866.85,1292.94C1866.85,1292.94 1841.39,1288.86 1804.62,1298.84C1767.85,1308.82 1763.28,1328.59 1753.08,1328.79ZM2170.62,1415.89C2118.9,1274.57 2036.36,1148.05 1931.15,1044.49C1866.1,1092.11 1795.38,1133.71 1720.02,1168.3C1738.35,1204.19 1755.06,1241.25 1770.05,1279.34C1777.58,1275.38 1786.44,1271.64 1796.43,1268.68C1828.84,1259.09 1862.96,1257.39 1901.76,1274.37C1943.62,1292.69 1916.22,1305.26 1896.31,1327.92C1891.65,1333.22 1887.24,1337.9 1882.06,1343.6C1900.66,1349.95 1942.01,1356.16 1962.8,1358.77C1990.33,1362.23 2024.45,1367.89 2050.95,1373.14C2079.79,1378.86 2115.79,1388.17 2148.89,1404.2C2156.93,1408.1 2164.11,1411.97 2170.62,1415.89ZM1575.07,1479.78L1570.02,1473.21L1566.64,1463.48L1566.26,1454.68L1568.52,1445.42L1572.44,1438.41L1576.84,1433.5L1583.99,1428.43L1591.76,1425.19C1600.33,1422.5 1616.52,1418.13 1635.6,1415.16C1642.5,1414.09 1655.26,1407.96 1660.03,1405.58L1660.04,1405.57C1647.89,1386.51 1587.52,1312.37 1567.76,1296.48C1549.75,1281.98 1530.31,1264.03 1502.23,1244.87C1410.49,1267.99 1314.23,1281.44 1214.82,1283.89C1073,1287.39 936.469,1268.21 809.435,1230.02C748.36,1359.11 708.892,1503.02 696.422,1655.56C725.107,1670.05 744.968,1701.2 744.968,1737.27C744.968,1770.67 727.938,1799.86 702.64,1815.49C704.746,1820.62 707.132,1824.76 709.762,1826.74C720.025,1834.45 736.012,1837.09 756.108,1845.79C782.249,1857.11 823.207,1891.7 852.876,1916.65C885.263,1943.88 937.023,1984.29 953.698,2022.09C967.889,2054.26 952.189,2076.94 938.398,2074.68C924.607,2072.42 891.021,2022.81 870.953,2008.52C828.667,1978.39 818.123,1978.22 817.394,1989.76C816.665,2001.3 841.833,2121.11 859.374,2178.88C867.123,2204.4 872.765,2225.95 876.878,2244.32C948.49,2217.04 1023.75,2196.31 1101.81,2182.97C1100.12,2176.71 1099.7,2171.59 1099.7,2171.59C1099.7,2171.59 1091.78,2109.67 1096.52,1991.15C1099.12,1925.9 1098.84,1878.82 1090.57,1838.41C1084.62,1809.31 1050.48,1841.11 1038.23,1868.53C1029.25,1888.64 1003.76,1961.88 990.472,1979.71C984.909,1987.18 964.171,1999.78 964.167,1970.05C964.164,1945.4 972.701,1890.89 987.014,1831.83C1001.33,1772.78 1022.2,1724.97 1066.04,1676.55C1105.81,1632.62 1147.79,1606.77 1159.29,1594.66C1163.19,1590.57 1164.72,1583.09 1164.99,1574.77C1123.25,1563.1 1092.28,1520.72 1092.28,1470.29C1092.28,1410.87 1135.27,1362.62 1188.22,1362.62C1241.16,1362.62 1284.15,1410.87 1284.15,1470.29C1284.15,1517.82 1256.65,1558.19 1218.54,1572.45C1219.26,1579.72 1220.72,1586.96 1223.56,1591.09C1230.78,1601.56 1247.74,1604.8 1261.33,1612.87C1294.19,1632.37 1329.3,1678.49 1357.68,1715.98C1396.98,1767.87 1430.94,1825.7 1437.19,1844.86C1443.45,1864.01 1447.93,1913.25 1409.71,1900.66C1404.99,1899.11 1369.55,1855.82 1352.73,1825.84C1343.16,1808.8 1314.75,1782.47 1305.54,1790.99C1294.22,1801.47 1298,1903.26 1301.22,2003.72C1304.47,2105.25 1300.08,2139.98 1290.33,2165.61C1353.46,2164.64 1415.49,2168.5 1476.01,2176.81C1478.87,2159.3 1482.17,2139.22 1485.91,2116.51C1500.09,2030.37 1510.47,1973.85 1502.53,1949.75C1494.59,1925.64 1458.14,1988.39 1452.24,1998.5C1440.61,2018.42 1443.87,2012.95 1428.05,2038.69C1412.22,2064.43 1400.98,2052.32 1402.92,2030.53C1404.75,2010.06 1397.23,2027.08 1414.53,1976.22C1431.84,1925.36 1456.6,1877.24 1495.13,1836.12C1532.5,1796.24 1553.23,1797.05 1568.56,1777.85C1573.42,1771.75 1575.93,1757.83 1577.22,1744.8C1554.57,1730.53 1540.48,1703.04 1543.19,1672.94C1546.94,1631.26 1581.48,1600.25 1620.27,1603.74C1659.07,1607.23 1687.52,1643.91 1683.77,1685.59C1680.42,1722.82 1652.49,1751.54 1618.91,1754.75C1618.55,1764.97 1618.74,1773.5 1620.04,1776.81C1623.92,1786.63 1635.04,1785.61 1643.33,1795.47C1658.47,1813.47 1681.53,1849.6 1701.39,1884.4C1729.49,1933.63 1746.58,2006.26 1749.44,2023.53C1752.31,2040.8 1752.66,2056.44 1730.86,2060.55C1719.14,2062.75 1697.22,2018.19 1687.23,1994.14C1677.25,1970.1 1667.64,1953.6 1656.79,1956.96C1646.42,1960.18 1641.41,2019.46 1634.8,2109.39C1632.19,2144.92 1629.02,2178.35 1625.4,2207.08C1651.46,2214.11 1677.15,2221.99 1702.42,2230.68C1760.88,2087.31 1793.45,1927.92 1793.45,1760.17C1793.45,1672.46 1784.55,1587.04 1767.69,1505C1765.91,1507.52 1764.31,1509.99 1762.99,1512.43C1762.19,1513.91 1760.98,1515.06 1761.02,1516.43C1761.23,1524.41 1760.83,1531.56 1759.72,1536.81L1754.28,1550.55L1749.52,1556.61L1742.4,1562.25L1733.51,1566.03L1724.53,1567.26L1716.12,1566.32L1706.42,1563.12C1694.32,1558.16 1669.25,1544.58 1648.64,1532.5C1628.38,1520.62 1599.44,1501.4 1587.6,1492.39C1583.37,1489.16 1580.49,1486.5 1579.08,1484.98L1574.59,1478.98C1574.74,1479.25 1574.9,1479.51 1575.07,1479.78L1577.52,1482.97C1576.57,1481.99 1575.76,1480.88 1575.07,1479.78ZM1624.67,1442.57C1624.57,1442.41 1624.47,1442.26 1624.37,1442.11C1623.91,1441.56 1623.61,1441.19 1623.61,1441.19L1623.86,1441.37C1623.13,1440.36 1622.3,1439.37 1621.36,1438.41L1624.67,1442.57ZM1881.2,998.514C1744.16,880.601 1575.03,798.955 1388.79,768.537C1507.73,858.684 1609.69,974.814 1688.04,1109.65C1756.77,1078.47 1821.45,1041.15 1881.2,998.514Z" style="fill:white;"/>
    </g>
</svg>
