<?xml version="1.0" encoding="UTF-8" standalone="no"?>
<!DOCTYPE svg PUBLIC "-//W3C//DTD SVG 1.1//EN" "http://www.w3.org/Graphics/SVG/1.1/DTD/svg11.dtd">
<svg width="100%" height="100%" viewBox="0 0 2481 3508" version="1.1" xmlns="http://www.w3.org/2000/svg" xmlns:xlink="http://www.w3.org/1999/xlink" xml:space="preserve" xmlns:serif="http://www.serif.com/" style="fill-rule:evenodd;clip-rule:evenodd;stroke-linejoin:round;stroke-miterlimit:2;">
    <g transform="matrix(0.301882,0,0,0.301882,792.379,1236.98)">
        <path d="M2013.8,2487.84C1817.9,2700.32 1537.31,2833.49 1225.88,2833.49C812.178,2833.49 452.905,2598.49 274.272,2254.76C271.887,2287.55 266.746,2313.91 258.85,2333.84C247.536,2362.39 232.182,2376.67 212.787,2376.67L26.92,2376.67L26.92,2754.87C26.92,2765.64 23.687,2775.07 17.222,2783.15C10.757,2791.23 -0.556,2797.97 -16.719,2803.35C-32.881,2808.74 -53.892,2812.78 -79.752,2815.47C-105.612,2818.17 -139.014,2819.52 -179.959,2819.52C-218.748,2819.52 -251.343,2818.17 -277.741,2815.47C-304.14,2812.78 -325.151,2808.74 -340.774,2803.35C-356.398,2797.97 -367.173,2791.23 -373.099,2783.15C-379.025,2775.07 -381.988,2765.64 -381.988,2754.87L-381.988,2376.67L-1182.03,2376.67C-1197.11,2376.67 -1210.58,2374.78 -1222.43,2371.01C-1234.28,2367.24 -1244.25,2358.62 -1252.33,2345.15C-1260.41,2331.68 -1266.34,2312.29 -1270.11,2286.97C-1273.88,2261.64 -1275.77,2227.97 -1275.77,2185.95C-1275.77,2151.47 -1274.96,2121.57 -1273.34,2096.25C-1271.73,2070.93 -1269.03,2048.03 -1265.26,2027.56C-1261.49,2007.09 -1256.1,1987.69 -1249.1,1969.38C-1242.1,1951.06 -1233.21,1931.66 -1222.43,1911.19L-572.704,765.279C-567.317,755.581 -558.158,747.231 -545.228,740.227C-532.298,733.223 -514.25,727.297 -491.084,722.448C-467.918,717.6 -438.557,714.098 -402.999,711.943C-367.442,709.788 -324.343,708.71 -273.7,708.71C-218.748,708.71 -171.878,710.057 -133.088,712.751C-94.298,715.445 -63.32,719.755 -40.154,725.681C-16.988,731.607 -0.018,738.88 10.757,747.5C21.532,756.12 26.92,766.356 26.92,778.209L26.92,2037.26L189.985,2037.26C166.558,1949.17 154.071,1856.64 154.071,1761.21C154.071,1169.41 634.334,688.937 1225.88,688.937C1817.43,688.937 2297.7,1169.41 2297.7,1761.21C2297.7,1913.17 2266.03,2057.79 2208.95,2188.82C2216.43,2184.72 2224.13,2180.9 2232.04,2177.36C2265.34,2162.48 2303.02,2155.04 2345.06,2155.04C2384.27,2155.04 2418.99,2163.19 2449.23,2179.49C2479.46,2195.79 2505.92,2219.53 2528.6,2250.71L2539.93,2194.72C2541.82,2184.8 2549.26,2177.72 2562.25,2173.47C2575.24,2169.21 2596.15,2167.09 2624.97,2167.09C2639.14,2167.09 2650.95,2167.68 2660.4,2168.86C2669.85,2170.04 2677.29,2171.7 2682.72,2173.82C2688.15,2175.95 2691.81,2178.78 2693.7,2182.32C2695.59,2185.87 2696.07,2190 2695.12,2194.72L2568.28,2828.23C2566.39,2838.15 2558.95,2845.24 2545.96,2849.49C2532.96,2853.74 2512.06,2855.87 2483.24,2855.87C2468.6,2855.87 2456.67,2855.39 2447.46,2854.45C2438.24,2853.51 2430.8,2851.97 2425.14,2849.84C2419.47,2847.72 2415.81,2844.88 2414.15,2841.34C2412.5,2837.8 2412.14,2833.43 2413.09,2828.23L2432.93,2726.9C2425.85,2742.02 2414.51,2757.96 2398.92,2774.73C2383.33,2791.5 2364.9,2806.74 2343.64,2820.44C2322.39,2834.14 2298.88,2845.47 2273.14,2854.45C2247.39,2863.43 2220.82,2867.91 2193.42,2867.91C2155.62,2867.91 2124.21,2861.3 2099.17,2848.07C2074.13,2834.85 2054.05,2817.01 2038.94,2794.57C2023.82,2772.13 2013.07,2746.5 2006.7,2717.69C2000.32,2688.87 1997.13,2658.64 1997.13,2626.98C1997.13,2597.22 1999.96,2564.74 2005.63,2529.55C2007.88,2515.63 2010.6,2501.73 2013.8,2487.84ZM1575.07,1479.78L1570.02,1473.21L1566.64,1463.48L1566.26,1454.68L1568.52,1445.42L1572.44,1438.41L1576.84,1433.5L1583.99,1428.43L1591.76,1425.19C1600.33,1422.5 1616.52,1418.13 1635.6,1415.16C1642.5,1414.09 1655.26,1407.96 1660.03,1405.58L1660.04,1405.57C1647.89,1386.51 1587.52,1312.37 1567.76,1296.48C1549.75,1281.98 1530.31,1264.03 1502.23,1244.87C1410.49,1267.99 1314.23,1281.44 1214.82,1283.89C1073,1287.39 936.469,1268.21 809.435,1230.02C748.36,1359.11 708.892,1503.02 696.422,1655.56C725.107,1670.05 744.968,1701.2 744.968,1737.27C744.968,1770.67 727.938,1799.86 702.64,1815.49C704.746,1820.62 707.132,1824.76 709.762,1826.74C720.025,1834.45 736.012,1837.09 756.108,1845.79C782.249,1857.11 823.207,1891.7 852.876,1916.65C885.263,1943.88 937.023,1984.29 953.698,2022.09C967.889,2054.26 952.189,2076.94 938.398,2074.68C924.607,2072.42 891.021,2022.81 870.953,2008.52C828.667,1978.39 818.123,1978.22 817.394,1989.76C816.665,2001.3 841.833,2121.11 859.374,2178.88C867.123,2204.4 872.765,2225.95 876.878,2244.32C948.49,2217.04 1023.75,2196.31 1101.81,2182.97C1100.12,2176.71 1099.7,2171.59 1099.7,2171.59C1099.7,2171.59 1091.78,2109.67 1096.52,1991.15C1099.12,1925.9 1098.84,1878.82 1090.57,1838.41C1084.62,1809.31 1050.48,1841.11 1038.23,1868.53C1029.25,1888.64 1003.76,1961.88 990.472,1979.71C984.909,1987.18 964.171,1999.78 964.167,1970.05C964.164,1945.4 972.701,1890.89 987.014,1831.83C1001.33,1772.78 1022.2,1724.97 1066.04,1676.55C1105.81,1632.62 1147.79,1606.77 1159.29,1594.66C1163.19,1590.57 1164.72,1583.09 1164.99,1574.77C1123.25,1563.1 1092.28,1520.72 1092.28,1470.29C1092.28,1410.87 1135.27,1362.62 1188.22,1362.62C1241.16,1362.62 1284.15,1410.87 1284.15,1470.29C1284.15,1517.82 1256.65,1558.19 1218.54,1572.45C1219.26,1579.72 1220.72,1586.96 1223.56,1591.09C1230.78,1601.56 1247.74,1604.8 1261.33,1612.87C1294.19,1632.37 1329.3,1678.49 1357.68,1715.98C1396.98,1767.87 1430.94,1825.7 1437.19,1844.86C1443.45,1864.01 1447.93,1913.25 1409.71,1900.66C1404.99,1899.11 1369.55,1855.82 1352.73,1825.84C1343.16,1808.8 1314.75,1782.47 1305.54,1790.99C1294.22,1801.47 1298,1903.26 1301.22,2003.72C1304.47,2105.25 1300.08,2139.98 1290.33,2165.61C1353.46,2164.64 1415.49,2168.5 1476.01,2176.81C1478.87,2159.3 1482.17,2139.22 1485.91,2116.51C1500.09,2030.37 1510.47,1973.85 1502.53,1949.75C1494.59,1925.64 1458.14,1988.39 1452.24,1998.5C1440.61,2018.42 1443.87,2012.95 1428.05,2038.69C1412.22,2064.43 1400.98,2052.32 1402.92,2030.53C1404.75,2010.06 1397.23,2027.08 1414.53,1976.22C1431.84,1925.36 1456.6,1877.24 1495.13,1836.12C1532.5,1796.24 1553.23,1797.05 1568.56,1777.85C1573.42,1771.75 1575.93,1757.83 1577.22,1744.8C1554.57,1730.53 1540.48,1703.04 1543.19,1672.94C1546.94,1631.26 1581.48,1600.25 1620.27,1603.74C1659.07,1607.23 1687.52,1643.91 1683.77,1685.59C1680.42,1722.82 1652.49,1751.54 1618.91,1754.75C1618.55,1764.97 1618.74,1773.5 1620.04,1776.81C1623.92,1786.63 1635.04,1785.61 1643.33,1795.47C1658.47,1813.47 1681.53,1849.6 1701.39,1884.4C1729.49,1933.63 1746.58,2006.26 1749.44,2023.53C1752.31,2040.8 1752.66,2056.44 1730.86,2060.55C1719.14,2062.75 1697.22,2018.19 1687.23,1994.14C1677.25,1970.1 1667.64,1953.6 1656.79,1956.96C1646.42,1960.18 1641.41,2019.46 1634.8,2109.39C1632.19,2144.92 1629.02,2178.35 1625.4,2207.08C1651.46,2214.11 1677.15,2221.99 1702.42,2230.68C1760.88,2087.31 1793.45,1927.92 1793.45,1760.17C1793.45,1672.46 1784.55,1587.04 1767.69,1505C1765.91,1507.52 1764.31,1509.99 1762.99,1512.43C1762.19,1513.91 1760.98,1515.06 1761.02,1516.43C1761.23,1524.41 1760.83,1531.56 1759.72,1536.81L1754.28,1550.55L1749.52,1556.61L1742.4,1562.25L1733.51,1566.03L1724.53,1567.26L1716.12,1566.32L1706.42,1563.12C1694.32,1558.16 1669.25,1544.58 1648.64,1532.5C1628.38,1520.62 1599.44,1501.4 1587.6,1492.39C1583.37,1489.16 1580.49,1486.5 1579.08,1484.98L1574.59,1478.98C1574.74,1479.25 1574.9,1479.51 1575.07,1479.78L1577.52,1482.97C1576.57,1481.99 1575.76,1480.88 1575.07,1479.78ZM-381.988,1075.6L-385.221,1075.6L-936.358,2037.26L-381.988,2037.26L-381.988,1075.6ZM1829.75,1476.24C1849.59,1567.25 1860.12,1662.33 1860.12,1760.17C1860.12,1936.34 1826,2103.57 1764.8,2254.13C1852.82,2290.08 1935.12,2336.14 2009.99,2390.77C2148.59,2218.38 2231.56,1999.41 2231.56,1761.22C2231.56,1701.64 2226.37,1643.27 2216.42,1586.53L2211.22,1584.31C2207.36,1581.95 2203.26,1578.68 2199.08,1574.38C2193.93,1569.08 2163.11,1537.01 2125.77,1520.3C2109.11,1512.85 2053.76,1498.88 2005.23,1492.18C1985.56,1489.47 1892.04,1478.81 1831.13,1476.3L1829.75,1476.24ZM1104.78,762.567C885.004,788.948 686.923,886.318 534.165,1031.06C608.451,1078.83 689.501,1118.57 775.705,1148.93C858.175,994.236 970.952,862.06 1104.78,762.567ZM766.782,2293.27C789.08,2282.12 807.803,2273.33 821.107,2267.27C819.194,2258.36 817.238,2248.91 815.236,2238.95C807.311,2199.49 759.416,2191.83 759.74,2242.63C759.803,2252.5 763.09,2272.19 766.782,2293.27ZM1161.72,2174.26C1187.25,2171.2 1213.04,2168.91 1239.07,2167.44C1229.57,2143.92 1229.96,2083.16 1224.45,2043.27C1216.92,1988.63 1186.99,1992.75 1174.6,2037.41C1168,2061.21 1166.57,2129.7 1163.94,2161.91C1163.57,2166.37 1162.81,2170.49 1161.72,2174.26ZM629.743,1652.97C642.392,1493.98 682.9,1343.96 745.739,1209C652.991,1175.61 565.979,1131.89 486.475,1079.37C320.991,1258.67 219.843,1498.23 219.843,1761.22C219.843,2036.71 330.838,2286.49 510.511,2468.23C569.362,2414.91 634.297,2367.38 704.278,2326.67C699.019,2299.18 689.86,2252.16 676.791,2188.17C658.162,2096.95 641.344,2077.79 629.418,2075.62C617.265,2073.4 603.086,2089.49 601.178,2102.3C594.899,2144.45 592.792,2173.89 584.281,2221.84C583.049,2228.78 559.252,2233.81 555.413,2212.8C550.888,2188.03 544.224,2131.83 545.569,2075.82C546.914,2019.8 555.114,1989.93 584.91,1937.64C616.406,1882.37 643.368,1867.04 647.955,1841.16C648.634,1837.34 648.575,1832.27 648.07,1826.68C607.072,1820.38 575.528,1782.72 575.528,1737.27C575.528,1698.87 598.039,1666.04 629.743,1652.97ZM1753.08,1328.79C1745.94,1328.93 1742.24,1318 1732.69,1306.82C1723.14,1295.65 1697.01,1259.93 1660.24,1228.9C1639.66,1211.53 1604.01,1193.64 1570.66,1182.94C1546.01,1175.03 1497.6,1163.43 1460.71,1159.66C1431.73,1156.7 1406.22,1156.92 1402.2,1159.56C1396.75,1163.14 1407.86,1167.66 1414.09,1170.85C1420.32,1174.05 1477.81,1192.84 1496.82,1204.28C1538.69,1229.49 1564.2,1253.5 1587.35,1272.13C1610.51,1290.76 1684.16,1382.62 1690.15,1395.48C1696.14,1408.34 1689.37,1415.41 1686.22,1423.47C1683.07,1431.53 1657.49,1443.38 1640.4,1446.04C1623.32,1448.7 1608.81,1452.59 1601.14,1455C1593.46,1457.41 1599.58,1459.82 1601.55,1463.18C1603.52,1466.55 1640.42,1491.46 1664.45,1505.54C1688.47,1519.63 1718.92,1536.06 1724.24,1536.01C1729.55,1535.96 1730.05,1527.7 1729.78,1517.25C1729.5,1506.8 1735.8,1495.47 1744.56,1483.68C1755.47,1468.99 1771.25,1451.41 1779.57,1447.64C1799.03,1436.85 1980.92,1457.28 2009.5,1461.23C2061.49,1468.4 2120.68,1483.79 2138.53,1491.78C2180.71,1510.65 2215.69,1546.62 2221.51,1552.62C2227.32,1558.61 2232.41,1561.08 2237.44,1558.76C2242.46,1556.45 2240.55,1549.19 2237.54,1540.06C2234.53,1530.93 2211.84,1499.4 2196.89,1480.44C2181.93,1461.49 2165.81,1447.12 2135.27,1432.33C2104.73,1417.54 2071.49,1409.07 2044.88,1403.8C2019.04,1398.68 1985.75,1393.15 1958.9,1389.78C1932.05,1386.41 1875.2,1376.41 1860.51,1368.24C1845.82,1360.08 1843.36,1350.12 1844.87,1341.61C1846.65,1331.62 1875.08,1306.6 1876.11,1303.12C1878.62,1294.71 1866.85,1292.94 1866.85,1292.94C1866.85,1292.94 1841.39,1288.86 1804.62,1298.84C1767.85,1308.82 1763.28,1328.59 1753.08,1328.79ZM2170.62,1415.89C2118.9,1274.57 2036.36,1148.05 1931.15,1044.49C1866.1,1092.11 1795.38,1133.71 1720.02,1168.3C1738.35,1204.19 1755.06,1241.25 1770.05,1279.34C1777.58,1275.38 1786.44,1271.64 1796.43,1268.68C1828.84,1259.09 1862.96,1257.39 1901.76,1274.37C1943.62,1292.69 1916.22,1305.26 1896.31,1327.92C1891.65,1333.22 1887.24,1337.9 1882.06,1343.6C1900.66,1349.95 1942.01,1356.16 1962.8,1358.77C1990.33,1362.23 2024.45,1367.89 2050.95,1373.14C2079.79,1378.86 2115.79,1388.17 2148.89,1404.2C2156.93,1408.1 2164.11,1411.97 2170.62,1415.89ZM1624.67,1442.57C1624.57,1442.41 1624.47,1442.26 1624.37,1442.11C1623.91,1441.56 1623.61,1441.19 1623.61,1441.19L1623.86,1441.37C1623.13,1440.36 1622.3,1439.37 1621.36,1438.41L1624.67,1442.57ZM1578.93,1152.78C1594.85,1147.38 1610.59,1141.66 1626.15,1135.64C1531.86,975.897 1402.42,844.537 1250.17,755.652C1245.41,755.538 1240.64,755.457 1235.86,755.41C1072.77,850.513 935.834,994.343 840.182,1169.59C957.429,1203.52 1083,1220.45 1213.17,1217.25C1276.86,1215.67 1339.2,1209.35 1399.79,1198.64C1392.8,1195.06 1383.02,1189.42 1378.88,1184.98L1372.55,1175.57L1369.6,1164.34L1370.03,1155.71L1372.67,1147.52L1377.55,1140L1385.04,1133.44L1392.59,1129.7L1402.78,1127.31C1413.61,1125.82 1437.49,1125.87 1463.88,1128.57C1502.28,1132.5 1552.48,1144.42 1578.93,1152.78ZM1881.2,998.514C1744.16,880.601 1575.03,798.955 1388.79,768.537C1507.73,858.684 1609.69,974.814 1688.04,1109.65C1756.77,1078.47 1821.45,1041.15 1881.2,998.514ZM1531.03,2185.67C1546.25,2188.48 1561.36,2191.58 1576.36,2194.95C1576.93,2185.08 1576.92,2175.52 1575.8,2166.98C1571.78,2136.27 1552.12,2144.93 1539.59,2162.27C1536.17,2166.99 1533.39,2175.39 1531.03,2185.67ZM2480.41,2384.64C2463.87,2358.65 2445.57,2339.16 2425.49,2326.17C2405.41,2313.18 2382.15,2306.69 2355.69,2306.69C2335.85,2306.69 2317.66,2311.41 2301.13,2320.86C2284.59,2330.31 2269.95,2342.94 2257.19,2358.77C2244.44,2374.6 2233.22,2392.9 2223.53,2413.69C2213.85,2434.47 2205.82,2456.09 2199.44,2478.53C2193.06,2500.97 2188.34,2523.64 2185.27,2546.55C2182.2,2569.47 2180.66,2590.61 2180.66,2609.98C2180.66,2624.15 2181.72,2637.61 2183.85,2650.37C2185.98,2663.12 2189.87,2674.46 2195.54,2684.38C2201.21,2694.3 2208.77,2702.22 2218.22,2708.12C2227.67,2714.03 2239.71,2716.98 2254.36,2716.98C2275.14,2716.98 2296.4,2710.72 2318.13,2698.2C2339.87,2685.68 2360.18,2668.67 2379.08,2647.18C2397.97,2625.68 2414.62,2600.65 2429.03,2572.07C2443.44,2543.48 2453.95,2512.89 2460.57,2480.3L2480.41,2384.64ZM3327.75,2336.45C3327.75,2352.98 3326.68,2369.52 3324.56,2386.05C3322.43,2402.59 3319.72,2419.59 3316.41,2437.07L3237.75,2827.52C3236.81,2832.25 3234.57,2836.38 3231.02,2839.92C3227.48,2843.47 3222.05,2846.42 3214.72,2848.78C3207.4,2851.14 3197.95,2852.91 3186.38,2854.1C3174.8,2855.28 3160.28,2855.87 3142.8,2855.87C3125.32,2855.87 3111.03,2855.28 3099.93,2854.1C3088.83,2852.91 3080.2,2851.14 3074.06,2848.78C3067.92,2846.42 3063.79,2843.47 3061.66,2839.92C3059.53,2836.38 3058.95,2832.25 3059.89,2827.52L3136.42,2448.41C3138.78,2437.07 3140.55,2425.5 3141.74,2413.69C3142.92,2401.88 3143.51,2391.49 3143.51,2382.51C3143.51,2361.25 3139.02,2343.77 3130.04,2330.07C3121.07,2316.37 3105.95,2309.52 3084.69,2309.52C3065.32,2309.52 3045.13,2315.66 3024.1,2327.95C3003.08,2340.23 2983.24,2356.88 2964.58,2377.9C2945.92,2398.93 2929.27,2423.49 2914.62,2451.6C2899.98,2479.71 2889.59,2509.59 2883.44,2541.24L2826.05,2827.52C2825.1,2832.25 2822.86,2836.38 2819.31,2839.92C2815.77,2843.47 2810.34,2846.42 2803.01,2848.78C2795.69,2851.14 2786.13,2852.91 2774.32,2854.1C2762.51,2855.28 2748.1,2855.87 2731.09,2855.87C2713.61,2855.87 2699.32,2855.28 2688.22,2854.1C2677.12,2852.91 2668.38,2851.14 2662,2848.78C2655.62,2846.42 2651.49,2843.47 2649.6,2839.92C2647.71,2836.38 2647.24,2832.25 2648.18,2827.52L2775.02,2194.72C2775.97,2190 2777.98,2185.87 2781.05,2182.32C2784.12,2178.78 2788.84,2175.95 2795.22,2173.82C2801.6,2171.7 2809.87,2170.04 2820.02,2168.86C2830.18,2167.68 2842.34,2167.09 2856.52,2167.09C2871.16,2167.09 2883.09,2167.68 2892.3,2168.86C2901.51,2170.04 2908.72,2171.7 2913.91,2173.82C2919.11,2175.95 2922.54,2178.78 2924.19,2182.32C2925.84,2185.87 2926.2,2190 2925.25,2194.72L2904.7,2298.89C2914.62,2282.36 2927.85,2265.47 2944.39,2248.23C2960.92,2230.98 2979.93,2215.51 3001.43,2201.81C3022.92,2188.11 3046.31,2176.89 3071.58,2168.15C3096.86,2159.41 3123.19,2155.04 3150.59,2155.04C3183.66,2155.04 3211.42,2159.88 3233.86,2169.57C3256.3,2179.25 3274.48,2192.36 3288.42,2208.9C3302.36,2225.43 3312.39,2244.68 3318.54,2266.65C3324.68,2288.62 3327.75,2311.88 3327.75,2336.45ZM3868.08,2223.07C3868.08,2228.74 3867.25,2237.12 3865.6,2248.23C3863.94,2259.33 3861.46,2270.55 3858.16,2281.89C3854.85,2293.22 3850.95,2303.03 3846.46,2311.29C3841.97,2319.56 3836.9,2323.69 3831.23,2323.69C3825.09,2323.69 3817.88,2321.45 3809.62,2316.96C3801.35,2312.47 3791.31,2307.51 3779.5,2302.08C3767.69,2296.65 3753.87,2291.81 3738.04,2287.55C3722.22,2283.3 3703.68,2281.18 3682.42,2281.18C3665.88,2281.18 3651.12,2283.3 3638.13,2287.55C3625.14,2291.81 3614.39,2297.59 3605.89,2304.91C3597.38,2312.24 3590.89,2320.86 3586.4,2330.78C3581.91,2340.7 3579.67,2351.33 3579.67,2362.67C3579.67,2377.31 3585.69,2389.6 3597.74,2399.52C3609.78,2409.44 3624.78,2418.77 3642.74,2427.51C3660.69,2436.25 3680.06,2445.34 3700.84,2454.79C3721.63,2464.24 3741,2476.05 3758.95,2490.22C3776.9,2504.39 3791.78,2521.64 3803.59,2541.95C3815.4,2562.26 3821.31,2587.77 3821.31,2618.48C3821.31,2654.38 3814.46,2687.57 3800.76,2718.04C3787.06,2748.51 3767.1,2774.85 3740.88,2797.05C3714.66,2819.26 3682.77,2836.62 3645.22,2849.14C3607.66,2861.65 3565.26,2867.91 3518.02,2867.91C3495.34,2867.91 3473.73,2866.26 3453.18,2862.95C3432.63,2859.65 3414.2,2855.63 3397.91,2850.91C3381.61,2846.18 3367.79,2840.75 3356.45,2834.61C3345.11,2828.47 3336.61,2822.8 3330.94,2817.6C3327.16,2813.82 3324.45,2809.81 3322.79,2805.55C3321.14,2801.3 3320.31,2795.87 3320.31,2789.26C3320.31,2785.01 3320.67,2779.57 3321.38,2772.96C3322.08,2766.35 3323.26,2759.02 3324.92,2750.99C3326.57,2742.96 3328.46,2734.93 3330.59,2726.9C3332.71,2718.87 3335.19,2711.55 3338.03,2704.93C3340.86,2698.32 3343.93,2693 3347.24,2688.99C3350.55,2684.97 3354.09,2682.96 3357.87,2682.96C3364.48,2682.96 3371.81,2685.8 3379.84,2691.47C3387.87,2697.14 3398.26,2703.4 3411.02,2710.25C3423.77,2717.1 3439.48,2723.47 3458.14,2729.38C3476.8,2735.28 3500.07,2738.24 3527.94,2738.24C3547.31,2738.24 3564.2,2735.99 3578.6,2731.5C3593.01,2727.02 3604.94,2720.76 3614.39,2712.73C3623.84,2704.7 3630.81,2695.48 3635.29,2685.09C3639.78,2674.7 3642.03,2663.6 3642.03,2651.78C3642.03,2635.25 3636.24,2621.79 3624.66,2611.39C3613.09,2601 3598.56,2591.32 3581.09,2582.34C3563.61,2573.36 3544.59,2564.15 3524.04,2554.7C3503.49,2545.26 3484.48,2533.68 3467,2519.98C3449.52,2506.28 3434.99,2489.28 3423.42,2468.96C3411.84,2448.65 3406.06,2423.14 3406.06,2392.43C3406.06,2358.89 3412.43,2327.71 3425.19,2298.89C3437.94,2270.08 3456.6,2244.92 3481.17,2223.42C3505.74,2201.93 3535.5,2185.16 3570.45,2173.11C3605.41,2161.07 3645.1,2155.04 3689.5,2155.04C3709.35,2155.04 3728.6,2156.34 3747.26,2158.94C3765.92,2161.54 3782.69,2164.96 3797.57,2169.21C3812.45,2173.47 3825.44,2178.19 3836.54,2183.39C3847.64,2188.58 3855.56,2193.78 3860.28,2198.98C3865.48,2203.7 3868.08,2211.73 3868.08,2223.07Z" style="fill:rgb(2,121,51);stroke:white;stroke-width:182.19px;"/>
        <path d="M2013.8,2487.84C1817.9,2700.32 1537.31,2833.49 1225.88,2833.49C812.178,2833.49 452.905,2598.49 274.272,2254.76C271.887,2287.55 266.746,2313.91 258.85,2333.84C247.536,2362.39 232.182,2376.67 212.787,2376.67L26.92,2376.67L26.92,2754.87C26.92,2765.64 23.687,2775.07 17.222,2783.15C10.757,2791.23 -0.556,2797.97 -16.719,2803.35C-32.881,2808.74 -53.892,2812.78 -79.752,2815.47C-105.612,2818.17 -139.014,2819.52 -179.959,2819.52C-218.748,2819.52 -251.343,2818.17 -277.741,2815.47C-304.14,2812.78 -325.151,2808.74 -340.774,2803.35C-356.398,2797.97 -367.173,2791.23 -373.099,2783.15C-379.025,2775.07 -381.988,2765.64 -381.988,2754.87L-381.988,2376.67L-1182.03,2376.67C-1197.11,2376.67 -1210.58,2374.78 -1222.43,2371.01C-1234.28,2367.24 -1244.25,2358.62 -1252.33,2345.15C-1260.41,2331.68 -1266.34,2312.29 -1270.11,2286.97C-1273.88,2261.64 -1275.77,2227.97 -1275.77,2185.95C-1275.77,2151.47 -1274.96,2121.57 -1273.34,2096.25C-1271.73,2070.93 -1269.03,2048.03 -1265.26,2027.56C-1261.49,2007.09 -1256.1,1987.69 -1249.1,1969.38C-1242.1,1951.06 -1233.21,1931.66 -1222.43,1911.19L-572.704,765.279C-567.317,755.581 -558.158,747.231 -545.228,740.227C-532.298,733.223 -514.25,727.297 -491.084,722.448C-467.918,717.6 -438.557,714.098 -402.999,711.943C-367.442,709.788 -324.343,708.71 -273.7,708.71C-218.748,708.71 -171.878,710.057 -133.088,712.751C-94.298,715.445 -63.32,719.755 -40.154,725.681C-16.988,731.607 -0.018,738.88 10.757,747.5C21.532,756.12 26.92,766.356 26.92,778.209L26.92,2037.26L189.985,2037.26C166.558,1949.17 154.071,1856.64 154.071,1761.21C154.071,1169.41 634.334,688.937 1225.88,688.937C1817.43,688.937 2297.7,1169.41 2297.7,1761.21C2297.7,1913.17 2266.03,2057.79 2208.95,2188.82C2216.43,2184.72 2224.13,2180.9 2232.04,2177.36C2265.34,2162.48 2303.02,2155.04 2345.06,2155.04C2384.27,2155.04 2418.99,2163.19 2449.23,2179.49C2479.46,2195.79 2505.92,2219.53 2528.6,2250.71L2539.93,2194.72C2541.82,2184.8 2549.26,2177.72 2562.25,2173.47C2575.24,2169.21 2596.15,2167.09 2624.97,2167.09C2639.14,2167.09 2650.95,2167.68 2660.4,2168.86C2669.85,2170.04 2677.29,2171.7 2682.72,2173.82C2688.15,2175.95 2691.81,2178.78 2693.7,2182.32C2695.59,2185.87 2696.07,2190 2695.12,2194.72L2568.28,2828.23C2566.39,2838.15 2558.95,2845.24 2545.96,2849.49C2532.96,2853.74 2512.06,2855.87 2483.24,2855.87C2468.6,2855.87 2456.67,2855.39 2447.46,2854.45C2438.24,2853.51 2430.8,2851.97 2425.14,2849.84C2419.47,2847.72 2415.81,2844.88 2414.15,2841.34C2412.5,2837.8 2412.14,2833.43 2413.09,2828.23L2432.93,2726.9C2425.85,2742.02 2414.51,2757.96 2398.92,2774.73C2383.33,2791.5 2364.9,2806.74 2343.64,2820.44C2322.39,2834.14 2298.88,2845.47 2273.14,2854.45C2247.39,2863.43 2220.82,2867.91 2193.42,2867.91C2155.62,2867.91 2124.21,2861.3 2099.17,2848.07C2074.13,2834.85 2054.05,2817.01 2038.94,2794.57C2023.82,2772.13 2013.07,2746.5 2006.7,2717.69C2000.32,2688.87 1997.13,2658.64 1997.13,2626.98C1997.13,2597.22 1999.96,2564.74 2005.63,2529.55C2007.88,2515.63 2010.6,2501.73 2013.8,2487.84ZM1575.07,1479.78L1570.02,1473.21L1566.64,1463.48L1566.26,1454.68L1568.52,1445.42L1572.44,1438.41L1576.84,1433.5L1583.99,1428.43L1591.76,1425.19C1600.33,1422.5 1616.52,1418.13 1635.6,1415.16C1642.5,1414.09 1655.26,1407.96 1660.03,1405.58L1660.04,1405.57C1647.89,1386.51 1587.52,1312.37 1567.76,1296.48C1549.75,1281.98 1530.31,1264.03 1502.23,1244.87C1410.49,1267.99 1314.23,1281.44 1214.82,1283.89C1073,1287.39 936.469,1268.21 809.435,1230.02C748.36,1359.11 708.892,1503.02 696.422,1655.56C725.107,1670.05 744.968,1701.2 744.968,1737.27C744.968,1770.67 727.938,1799.86 702.64,1815.49C704.746,1820.62 707.132,1824.76 709.762,1826.74C720.025,1834.45 736.012,1837.09 756.108,1845.79C782.249,1857.11 823.207,1891.7 852.876,1916.65C885.263,1943.88 937.023,1984.29 953.698,2022.09C967.889,2054.26 952.189,2076.94 938.398,2074.68C924.607,2072.42 891.021,2022.81 870.953,2008.52C828.667,1978.39 818.123,1978.22 817.394,1989.76C816.665,2001.3 841.833,2121.11 859.374,2178.88C867.123,2204.4 872.765,2225.95 876.878,2244.32C948.49,2217.04 1023.75,2196.31 1101.81,2182.97C1100.12,2176.71 1099.7,2171.59 1099.7,2171.59C1099.7,2171.59 1091.78,2109.67 1096.52,1991.15C1099.12,1925.9 1098.84,1878.82 1090.57,1838.41C1084.62,1809.31 1050.48,1841.11 1038.23,1868.53C1029.25,1888.64 1003.76,1961.88 990.472,1979.71C984.909,1987.18 964.171,1999.78 964.167,1970.05C964.164,1945.4 972.701,1890.89 987.014,1831.83C1001.33,1772.78 1022.2,1724.97 1066.04,1676.55C1105.81,1632.62 1147.79,1606.77 1159.29,1594.66C1163.19,1590.57 1164.72,1583.09 1164.99,1574.77C1123.25,1563.1 1092.28,1520.72 1092.28,1470.29C1092.28,1410.87 1135.27,1362.62 1188.22,1362.62C1241.16,1362.62 1284.15,1410.87 1284.15,1470.29C1284.15,1517.82 1256.65,1558.19 1218.54,1572.45C1219.26,1579.72 1220.72,1586.96 1223.56,1591.09C1230.78,1601.56 1247.74,1604.8 1261.33,1612.87C1294.19,1632.37 1329.3,1678.49 1357.68,1715.98C1396.98,1767.87 1430.94,1825.7 1437.19,1844.86C1443.45,1864.01 1447.93,1913.25 1409.71,1900.66C1404.99,1899.11 1369.55,1855.82 1352.73,1825.84C1343.16,1808.8 1314.75,1782.47 1305.54,1790.99C1294.22,1801.47 1298,1903.26 1301.22,2003.72C1304.47,2105.25 1300.08,2139.98 1290.33,2165.61C1353.46,2164.64 1415.49,2168.5 1476.01,2176.81C1478.87,2159.3 1482.17,2139.22 1485.91,2116.51C1500.09,2030.37 1510.47,1973.85 1502.53,1949.75C1494.59,1925.64 1458.14,1988.39 1452.24,1998.5C1440.61,2018.42 1443.87,2012.95 1428.05,2038.69C1412.22,2064.43 1400.98,2052.32 1402.92,2030.53C1404.75,2010.06 1397.23,2027.08 1414.53,1976.22C1431.84,1925.36 1456.6,1877.24 1495.13,1836.12C1532.5,1796.24 1553.23,1797.05 1568.56,1777.85C1573.42,1771.75 1575.93,1757.83 1577.22,1744.8C1554.57,1730.53 1540.48,1703.04 1543.19,1672.94C1546.94,1631.26 1581.48,1600.25 1620.27,1603.74C1659.07,1607.23 1687.52,1643.91 1683.77,1685.59C1680.42,1722.82 1652.49,1751.54 1618.91,1754.75C1618.55,1764.97 1618.74,1773.5 1620.04,1776.81C1623.92,1786.63 1635.04,1785.61 1643.33,1795.47C1658.47,1813.47 1681.53,1849.6 1701.39,1884.4C1729.49,1933.63 1746.58,2006.26 1749.44,2023.53C1752.31,2040.8 1752.66,2056.44 1730.86,2060.55C1719.14,2062.75 1697.22,2018.19 1687.23,1994.14C1677.25,1970.1 1667.64,1953.6 1656.79,1956.96C1646.42,1960.18 1641.41,2019.46 1634.8,2109.39C1632.19,2144.92 1629.02,2178.35 1625.4,2207.08C1651.46,2214.11 1677.15,2221.99 1702.42,2230.68C1760.88,2087.31 1793.45,1927.92 1793.45,1760.17C1793.45,1672.46 1784.55,1587.04 1767.69,1505C1765.91,1507.52 1764.31,1509.99 1762.99,1512.43C1762.19,1513.91 1760.98,1515.06 1761.02,1516.43C1761.23,1524.41 1760.83,1531.56 1759.72,1536.81L1754.28,1550.55L1749.52,1556.61L1742.4,1562.25L1733.51,1566.03L1724.53,1567.26L1716.12,1566.32L1706.42,1563.12C1694.32,1558.16 1669.25,1544.58 1648.64,1532.5C1628.38,1520.62 1599.44,1501.4 1587.6,1492.39C1583.37,1489.16 1580.49,1486.5 1579.08,1484.98L1574.59,1478.98C1574.74,1479.25 1574.9,1479.51 1575.07,1479.78L1577.52,1482.97C1576.57,1481.99 1575.76,1480.88 1575.07,1479.78ZM-381.988,1075.6L-385.221,1075.6L-936.358,2037.26L-381.988,2037.26L-381.988,1075.6ZM1829.75,1476.24C1849.59,1567.25 1860.12,1662.33 1860.12,1760.17C1860.12,1936.34 1826,2103.57 1764.8,2254.13C1852.82,2290.08 1935.12,2336.14 2009.99,2390.77C2148.59,2218.38 2231.56,1999.41 2231.56,1761.22C2231.56,1701.64 2226.37,1643.27 2216.42,1586.53L2211.22,1584.31C2207.36,1581.95 2203.26,1578.68 2199.08,1574.38C2193.93,1569.08 2163.11,1537.01 2125.77,1520.3C2109.11,1512.85 2053.76,1498.88 2005.23,1492.18C1985.56,1489.47 1892.04,1478.81 1831.13,1476.3L1829.75,1476.24ZM1104.78,762.567C885.004,788.948 686.923,886.318 534.165,1031.06C608.451,1078.83 689.501,1118.57 775.705,1148.93C858.175,994.236 970.952,862.06 1104.78,762.567ZM766.782,2293.27C789.08,2282.12 807.803,2273.33 821.107,2267.27C819.194,2258.36 817.238,2248.91 815.236,2238.95C807.311,2199.49 759.416,2191.83 759.74,2242.63C759.803,2252.5 763.09,2272.19 766.782,2293.27ZM1161.72,2174.26C1187.25,2171.2 1213.04,2168.91 1239.07,2167.44C1229.57,2143.92 1229.96,2083.16 1224.45,2043.27C1216.92,1988.63 1186.99,1992.75 1174.6,2037.41C1168,2061.21 1166.57,2129.7 1163.94,2161.91C1163.57,2166.37 1162.81,2170.49 1161.72,2174.26ZM629.743,1652.97C642.392,1493.98 682.9,1343.96 745.739,1209C652.991,1175.61 565.979,1131.89 486.475,1079.37C320.991,1258.67 219.843,1498.23 219.843,1761.22C219.843,2036.71 330.838,2286.49 510.511,2468.23C569.362,2414.91 634.297,2367.38 704.278,2326.67C699.019,2299.18 689.86,2252.16 676.791,2188.17C658.162,2096.95 641.344,2077.79 629.418,2075.62C617.265,2073.4 603.086,2089.49 601.178,2102.3C594.899,2144.45 592.792,2173.89 584.281,2221.84C583.049,2228.78 559.252,2233.81 555.413,2212.8C550.888,2188.03 544.224,2131.83 545.569,2075.82C546.914,2019.8 555.114,1989.93 584.91,1937.64C616.406,1882.37 643.368,1867.04 647.955,1841.16C648.634,1837.34 648.575,1832.27 648.07,1826.68C607.072,1820.38 575.528,1782.72 575.528,1737.27C575.528,1698.87 598.039,1666.04 629.743,1652.97ZM1753.08,1328.79C1745.94,1328.93 1742.24,1318 1732.69,1306.82C1723.14,1295.65 1697.01,1259.93 1660.24,1228.9C1639.66,1211.53 1604.01,1193.64 1570.66,1182.94C1546.01,1175.03 1497.6,1163.43 1460.71,1159.66C1431.73,1156.7 1406.22,1156.92 1402.2,1159.56C1396.75,1163.14 1407.86,1167.66 1414.09,1170.85C1420.32,1174.05 1477.81,1192.84 1496.82,1204.28C1538.69,1229.49 1564.2,1253.5 1587.35,1272.13C1610.51,1290.76 1684.16,1382.62 1690.15,1395.48C1696.14,1408.34 1689.37,1415.41 1686.22,1423.47C1683.07,1431.53 1657.49,1443.38 1640.4,1446.04C1623.32,1448.7 1608.81,1452.59 1601.14,1455C1593.46,1457.41 1599.58,1459.82 1601.55,1463.18C1603.52,1466.55 1640.42,1491.46 1664.45,1505.54C1688.47,1519.63 1718.92,1536.06 1724.24,1536.01C1729.55,1535.96 1730.05,1527.7 1729.78,1517.25C1729.5,1506.8 1735.8,1495.47 1744.56,1483.68C1755.47,1468.99 1771.25,1451.41 1779.57,1447.64C1799.03,1436.85 1980.92,1457.28 2009.5,1461.23C2061.49,1468.4 2120.68,1483.79 2138.53,1491.78C2180.71,1510.65 2215.69,1546.62 2221.51,1552.62C2227.32,1558.61 2232.41,1561.08 2237.44,1558.76C2242.46,1556.45 2240.55,1549.19 2237.54,1540.06C2234.53,1530.93 2211.84,1499.4 2196.89,1480.44C2181.93,1461.49 2165.81,1447.12 2135.27,1432.33C2104.73,1417.54 2071.49,1409.07 2044.88,1403.8C2019.04,1398.68 1985.75,1393.15 1958.9,1389.78C1932.05,1386.41 1875.2,1376.41 1860.51,1368.24C1845.82,1360.08 1843.36,1350.12 1844.87,1341.61C1846.65,1331.62 1875.08,1306.6 1876.11,1303.12C1878.62,1294.71 1866.85,1292.94 1866.85,1292.94C1866.85,1292.94 1841.39,1288.86 1804.62,1298.84C1767.85,1308.82 1763.28,1328.59 1753.08,1328.79ZM2170.62,1415.89C2118.9,1274.57 2036.36,1148.05 1931.15,1044.49C1866.1,1092.11 1795.38,1133.71 1720.02,1168.3C1738.35,1204.19 1755.06,1241.25 1770.05,1279.34C1777.58,1275.38 1786.44,1271.64 1796.43,1268.68C1828.84,1259.09 1862.96,1257.39 1901.76,1274.37C1943.62,1292.69 1916.22,1305.26 1896.31,1327.92C1891.65,1333.22 1887.24,1337.9 1882.06,1343.6C1900.66,1349.95 1942.01,1356.16 1962.8,1358.77C1990.33,1362.23 2024.45,1367.89 2050.95,1373.14C2079.79,1378.86 2115.79,1388.17 2148.89,1404.2C2156.93,1408.1 2164.11,1411.97 2170.62,1415.89ZM1624.67,1442.57C1624.57,1442.41 1624.47,1442.26 1624.37,1442.11C1623.91,1441.56 1623.61,1441.19 1623.61,1441.19L1623.86,1441.37C1623.13,1440.36 1622.3,1439.37 1621.36,1438.41L1624.67,1442.57ZM1578.93,1152.78C1594.85,1147.38 1610.59,1141.66 1626.15,1135.64C1531.86,975.897 1402.42,844.537 1250.17,755.652C1245.41,755.538 1240.64,755.457 1235.86,755.41C1072.77,850.513 935.834,994.343 840.182,1169.59C957.429,1203.52 1083,1220.45 1213.17,1217.25C1276.86,1215.67 1339.2,1209.35 1399.79,1198.64C1392.8,1195.06 1383.02,1189.42 1378.88,1184.98L1372.55,1175.57L1369.6,1164.34L1370.03,1155.71L1372.67,1147.52L1377.55,1140L1385.04,1133.44L1392.59,1129.7L1402.78,1127.31C1413.61,1125.82 1437.49,1125.87 1463.88,1128.57C1502.28,1132.5 1552.48,1144.42 1578.93,1152.78ZM1881.2,998.514C1744.16,880.601 1575.03,798.955 1388.79,768.537C1507.73,858.684 1609.69,974.814 1688.04,1109.65C1756.77,1078.47 1821.45,1041.15 1881.2,998.514ZM1531.03,2185.67C1546.25,2188.48 1561.36,2191.58 1576.36,2194.95C1576.93,2185.08 1576.92,2175.52 1575.8,2166.98C1571.78,2136.27 1552.12,2144.93 1539.59,2162.27C1536.17,2166.99 1533.39,2175.39 1531.03,2185.67ZM2480.41,2384.64C2463.87,2358.65 2445.57,2339.16 2425.49,2326.17C2405.41,2313.18 2382.15,2306.69 2355.69,2306.69C2335.85,2306.69 2317.66,2311.41 2301.13,2320.86C2284.59,2330.31 2269.95,2342.94 2257.19,2358.77C2244.44,2374.6 2233.22,2392.9 2223.53,2413.69C2213.85,2434.47 2205.82,2456.09 2199.44,2478.53C2193.06,2500.97 2188.34,2523.64 2185.27,2546.55C2182.2,2569.47 2180.66,2590.61 2180.66,2609.98C2180.66,2624.15 2181.72,2637.61 2183.85,2650.37C2185.98,2663.12 2189.87,2674.46 2195.54,2684.38C2201.21,2694.3 2208.77,2702.22 2218.22,2708.12C2227.67,2714.03 2239.71,2716.98 2254.36,2716.98C2275.14,2716.98 2296.4,2710.72 2318.13,2698.2C2339.87,2685.68 2360.18,2668.67 2379.08,2647.18C2397.97,2625.68 2414.62,2600.65 2429.03,2572.07C2443.44,2543.48 2453.95,2512.89 2460.57,2480.3L2480.41,2384.64ZM3327.75,2336.45C3327.75,2352.98 3326.68,2369.52 3324.56,2386.05C3322.43,2402.59 3319.72,2419.59 3316.41,2437.07L3237.75,2827.52C3236.81,2832.25 3234.57,2836.38 3231.02,2839.92C3227.48,2843.47 3222.05,2846.42 3214.72,2848.78C3207.4,2851.14 3197.95,2852.91 3186.38,2854.1C3174.8,2855.28 3160.28,2855.87 3142.8,2855.87C3125.32,2855.87 3111.03,2855.28 3099.93,2854.1C3088.83,2852.91 3080.2,2851.14 3074.06,2848.78C3067.92,2846.42 3063.79,2843.47 3061.66,2839.92C3059.53,2836.38 3058.95,2832.25 3059.89,2827.52L3136.42,2448.41C3138.78,2437.07 3140.55,2425.5 3141.74,2413.69C3142.92,2401.88 3143.51,2391.49 3143.51,2382.51C3143.51,2361.25 3139.02,2343.77 3130.04,2330.07C3121.07,2316.37 3105.95,2309.52 3084.69,2309.52C3065.32,2309.52 3045.13,2315.66 3024.1,2327.95C3003.08,2340.23 2983.24,2356.88 2964.58,2377.9C2945.92,2398.93 2929.27,2423.49 2914.62,2451.6C2899.98,2479.71 2889.59,2509.59 2883.44,2541.24L2826.05,2827.52C2825.1,2832.25 2822.86,2836.38 2819.31,2839.92C2815.77,2843.47 2810.34,2846.42 2803.01,2848.78C2795.69,2851.14 2786.13,2852.91 2774.32,2854.1C2762.51,2855.28 2748.1,2855.87 2731.09,2855.87C2713.61,2855.87 2699.32,2855.28 2688.22,2854.1C2677.12,2852.91 2668.38,2851.14 2662,2848.78C2655.62,2846.42 2651.49,2843.47 2649.6,2839.92C2647.71,2836.38 2647.24,2832.25 2648.18,2827.52L2775.02,2194.72C2775.97,2190 2777.98,2185.87 2781.05,2182.32C2784.12,2178.78 2788.84,2175.95 2795.22,2173.82C2801.6,2171.7 2809.87,2170.04 2820.02,2168.86C2830.18,2167.68 2842.34,2167.09 2856.52,2167.09C2871.16,2167.09 2883.09,2167.68 2892.3,2168.86C2901.51,2170.04 2908.72,2171.7 2913.91,2173.82C2919.11,2175.95 2922.54,2178.78 2924.19,2182.32C2925.84,2185.87 2926.2,2190 2925.25,2194.72L2904.7,2298.89C2914.62,2282.36 2927.85,2265.47 2944.39,2248.23C2960.92,2230.98 2979.93,2215.51 3001.43,2201.81C3022.92,2188.11 3046.31,2176.89 3071.58,2168.15C3096.86,2159.41 3123.19,2155.04 3150.59,2155.04C3183.66,2155.04 3211.42,2159.88 3233.86,2169.57C3256.3,2179.25 3274.48,2192.36 3288.42,2208.9C3302.36,2225.43 3312.39,2244.68 3318.54,2266.65C3324.68,2288.62 3327.75,2311.88 3327.75,2336.45ZM3868.08,2223.07C3868.08,2228.74 3867.25,2237.12 3865.6,2248.23C3863.94,2259.33 3861.46,2270.55 3858.16,2281.89C3854.85,2293.22 3850.95,2303.03 3846.46,2311.29C3841.97,2319.56 3836.9,2323.69 3831.23,2323.69C3825.09,2323.69 3817.88,2321.45 3809.62,2316.96C3801.35,2312.47 3791.31,2307.51 3779.5,2302.08C3767.69,2296.65 3753.87,2291.81 3738.04,2287.55C3722.22,2283.3 3703.68,2281.18 3682.42,2281.18C3665.88,2281.18 3651.12,2283.3 3638.13,2287.55C3625.14,2291.81 3614.39,2297.59 3605.89,2304.91C3597.38,2312.24 3590.89,2320.86 3586.4,2330.78C3581.91,2340.7 3579.67,2351.33 3579.67,2362.67C3579.67,2377.31 3585.69,2389.6 3597.74,2399.52C3609.78,2409.44 3624.78,2418.77 3642.74,2427.51C3660.69,2436.25 3680.06,2445.34 3700.84,2454.79C3721.63,2464.24 3741,2476.05 3758.95,2490.22C3776.9,2504.39 3791.78,2521.64 3803.59,2541.95C3815.4,2562.26 3821.31,2587.77 3821.31,2618.48C3821.31,2654.38 3814.46,2687.57 3800.76,2718.04C3787.06,2748.51 3767.1,2774.85 3740.88,2797.05C3714.66,2819.26 3682.77,2836.62 3645.22,2849.14C3607.66,2861.65 3565.26,2867.91 3518.02,2867.91C3495.34,2867.91 3473.73,2866.26 3453.18,2862.95C3432.63,2859.65 3414.2,2855.63 3397.91,2850.91C3381.61,2846.18 3367.79,2840.75 3356.45,2834.61C3345.11,2828.47 3336.61,2822.8 3330.94,2817.6C3327.16,2813.82 3324.45,2809.81 3322.79,2805.55C3321.14,2801.3 3320.31,2795.87 3320.31,2789.26C3320.31,2785.01 3320.67,2779.57 3321.38,2772.96C3322.08,2766.35 3323.26,2759.02 3324.92,2750.99C3326.57,2742.96 3328.46,2734.93 3330.59,2726.9C3332.71,2718.87 3335.19,2711.55 3338.03,2704.93C3340.86,2698.32 3343.93,2693 3347.24,2688.99C3350.55,2684.97 3354.09,2682.96 3357.87,2682.96C3364.48,2682.96 3371.81,2685.8 3379.84,2691.47C3387.87,2697.14 3398.26,2703.4 3411.02,2710.25C3423.77,2717.1 3439.48,2723.47 3458.14,2729.38C3476.8,2735.28 3500.07,2738.24 3527.94,2738.24C3547.31,2738.24 3564.2,2735.99 3578.6,2731.5C3593.01,2727.02 3604.94,2720.76 3614.39,2712.73C3623.84,2704.7 3630.81,2695.48 3635.29,2685.09C3639.78,2674.7 3642.03,2663.6 3642.03,2651.78C3642.03,2635.25 3636.24,2621.79 3624.66,2611.39C3613.09,2601 3598.56,2591.32 3581.09,2582.34C3563.61,2573.36 3544.59,2564.15 3524.04,2554.7C3503.49,2545.26 3484.48,2533.68 3467,2519.98C3449.52,2506.28 3434.99,2489.28 3423.42,2468.96C3411.84,2448.65 3406.06,2423.14 3406.06,2392.43C3406.06,2358.89 3412.43,2327.71 3425.19,2298.89C3437.94,2270.08 3456.6,2244.92 3481.17,2223.42C3505.74,2201.93 3535.5,2185.16 3570.45,2173.11C3605.41,2161.07 3645.1,2155.04 3689.5,2155.04C3709.35,2155.04 3728.6,2156.34 3747.26,2158.94C3765.92,2161.54 3782.69,2164.96 3797.57,2169.21C3812.45,2173.47 3825.44,2178.19 3836.54,2183.39C3847.64,2188.58 3855.56,2193.78 3860.28,2198.98C3865.48,2203.7 3868.08,2211.73 3868.08,2223.07Z" style="fill:rgb(2,121,51);"/>
    </g>
</svg>
